<?xml version="1.0" encoding="UTF-8"?><svg xmlns="http://www.w3.org/2000/svg" xmlns:xlink="http://www.w3.org/1999/xlink" width="1190.25" zoomAndPan="magnify" viewBox="0 0 1190.25 1683.749945" height="1683.749945" preserveAspectRatio="xMidYMid meet" version="1.0"><defs><clipPath id="clip-0"><path d="M 86 50.105469 L 1104 50.105469 L 1104 1042.148438 L 86 1042.148438 Z M 86 50.105469 " clip-rule="nonzero"/></clipPath></defs><path fill="rgb(14.898682%, 7.449341%, 0%)" d="M 128.726562 92.507812 L 1061.585938 92.507812 L 1061.585938 999.761719 L 128.726562 999.761719 Z M 128.726562 92.507812 " fill-opacity="1" fill-rule="nonzero"/><g clip-path="url(#clip-0)"><path fill="rgb(100%, 48.629761%, 0%)" d="M 86.316406 50.105469 L 86.316406 1042.148438 L 1103.976562 1042.148438 L 1103.976562 50.105469 Z M 128.726562 92.507812 L 1061.585938 92.507812 L 1061.585938 999.761719 L 128.726562 999.761719 Z M 439.523438 611.832031 L 406.023438 739.019531 C 405.179688 742.40625 403.90625 743.261719 399.660156 743.261719 L 337.328125 743.261719 C 333.085938 743.261719 332.242188 741.992188 333.085938 736.902344 L 453.5 315.492188 C 455.617188 307.863281 456.886719 301.074219 457.746094 280.3125 C 457.746094 277.335938 459.019531 276.066406 461.132812 276.066406 L 550.179688 276.066406 C 553.152344 276.066406 554.425781 276.910156 555.269531 280.3125 L 690.105469 737.746094 C 690.949219 741.132812 690.105469 743.261719 686.71875 743.261719 L 616.328125 743.261719 C 612.941406 743.261719 610.808594 742.421875 609.964844 739.449219 L 574.777344 611.832031 Z M 557.398438 543.152344 L 506.945312 343.902344 L 506.101562 343.902344 C 497.199219 393.503906 474.730469 477.445312 456.921875 543.152344 Z M 748.210938 307.433594 C 748.210938 280.292969 767.289062 264.191406 791.460938 264.191406 C 817.332031 264.191406 834.710938 281.566406 834.710938 307.433594 C 834.710938 335.414062 816.472656 350.675781 790.617188 350.675781 C 766.019531 350.675781 748.210938 335.414062 748.210938 307.433594 Z M 753.296875 403.664062 C 753.296875 400.277344 754.570312 398.578125 758.386719 398.578125 L 824.960938 398.578125 C 828.351562 398.578125 830.050781 399.847656 830.050781 403.664062 L 830.050781 738.160156 C 830.050781 741.546875 829.207031 743.246094 824.960938 743.246094 L 759.246094 743.246094 C 755 743.246094 753.726562 741.132812 753.726562 737.730469 L 753.726562 403.679688 Z M 753.296875 403.664062 " fill-opacity="1" fill-rule="nonzero"/></g></svg>