<?xml version="1.0" encoding="UTF-8"?><svg xmlns="http://www.w3.org/2000/svg" xmlns:xlink="http://www.w3.org/1999/xlink" width="5184" zoomAndPan="magnify" viewBox="0 0 5184 2592.000001" height="2592.000001" preserveAspectRatio="xMidYMid meet" version="1.0"><defs><clipPath id="clip-0"><path d="M 1 0 L 5183 0 L 5183 2591 L 1 2591 Z M 1 0 " clip-rule="nonzero"/></clipPath><clipPath id="clip-1"><path d="M 1593 1383 L 3068 1383 L 3068 1713.378906 L 1593 1713.378906 Z M 1593 1383 " clip-rule="nonzero"/></clipPath></defs><g clip-path="url(#clip-0)"><path fill="rgb(100%, 100%, 100%)" d="M 1 0 L 5183 0 L 5183 2598.496094 L 1 2598.496094 Z M 1 0 " fill-opacity="1" fill-rule="nonzero"/></g><path fill="rgb(100%, 100%, 100%)" d="M 1 0 L 5183 0 L 5183 2591 L 1 2591 Z M 1 0 " fill-opacity="1" fill-rule="nonzero"/><path fill="rgb(100%, 100%, 100%)" d="M 1 0 L 5183 0 L 5183 2591 L 1 2591 Z M 1 0 " fill-opacity="1" fill-rule="nonzero"/><g clip-path="url(#clip-1)"><path fill="rgb(100%, 59.999084%, 0%)" d="M 2926.191406 1532.949219 C 2765.101562 1651.894531 2530.855469 1715.40625 2329.4375 1715.40625 C 2047.03125 1715.40625 1792.757812 1610.988281 1600.421875 1437.246094 C 1585.3125 1423.582031 1598.839844 1404.976562 1616.976562 1415.585938 C 1824.558594 1536.390625 2081.21875 1609.015625 2346.324219 1609.015625 C 2525.132812 1609.015625 2721.828125 1572.023438 2902.695312 1495.261719 C 2930.023438 1483.652344 2952.855469 1513.148438 2926.136719 1532.976562 M 2993.292969 1456.214844 C 2972.742188 1429.832031 2857.199219 1443.773438 2804.929688 1449.9375 C 2789.097656 1451.882812 2786.683594 1438.082031 2800.929688 1428.164062 C 2893.140625 1363.234375 3044.507812 1381.980469 3062.203125 1403.726562 C 3079.894531 1425.472656 3057.617188 1577.300781 2970.9375 1649.726562 C 2957.605469 1660.835938 2944.9375 1654.921875 2950.855469 1640.175781 C 2970.296875 1591.574219 3013.957031 1482.652344 2993.292969 1456.1875 " fill-opacity="1" fill-rule="evenodd"/></g><path fill="rgb(13.328552%, 12.159729%, 12.159729%)" d="M 2808.566406 969.847656 L 2808.566406 906.753906 C 2808.554688 906.226562 2808.566406 905.699219 2808.605469 905.171875 C 2808.644531 904.648438 2808.710938 904.125 2808.804688 903.605469 C 2808.894531 903.089844 2809.011719 902.574219 2809.15625 902.070312 C 2809.300781 901.5625 2809.472656 901.0625 2809.667969 900.574219 C 2809.863281 900.085938 2810.082031 899.605469 2810.324219 899.140625 C 2810.570312 898.671875 2810.835938 898.21875 2811.125 897.777344 C 2811.414062 897.335938 2811.726562 896.914062 2812.058594 896.503906 C 2812.390625 896.097656 2812.746094 895.707031 2813.117188 895.332031 C 2813.492188 894.960938 2813.882812 894.609375 2814.289062 894.273438 C 2814.699219 893.941406 2815.121094 893.628906 2815.5625 893.339844 C 2816.003906 893.050781 2816.457031 892.785156 2816.925781 892.539062 C 2817.390625 892.296875 2817.871094 892.078125 2818.359375 891.882812 C 2818.847656 891.6875 2819.347656 891.515625 2819.855469 891.371094 C 2820.359375 891.230469 2820.875 891.109375 2821.394531 891.019531 C 2821.910156 890.925781 2822.433594 890.859375 2822.960938 890.820312 C 2823.484375 890.78125 2824.011719 890.769531 2824.539062 890.785156 L 3107.054688 890.785156 C 3116.109375 890.785156 3123.386719 897.308594 3123.386719 906.753906 L 3123.386719 960.769531 C 3123.277344 969.820312 3115.609375 981.679688 3102.113281 1000.425781 L 2955.742188 1209.4375 C 3010.179688 1208.101562 3067.5625 1216.210938 3116.886719 1244.011719 C 3127.996094 1250.289062 3130.773438 1259.480469 3131.886719 1268.5625 L 3131.886719 1335.90625 C 3131.886719 1345.074219 3121.722656 1355.847656 3111.054688 1350.292969 C 3024.121094 1304.75 2908.664062 1299.75 2812.566406 1350.765625 C 2802.761719 1356.097656 2792.488281 1345.433594 2792.488281 1336.269531 L 2792.488281 1272.3125 C 2792.488281 1262.035156 2792.597656 1244.539062 2802.875 1228.902344 L 2972.492188 985.679688 L 2825.148438 985.679688 C 2816.09375 985.679688 2808.816406 979.292969 2808.816406 969.847656 M 1777.898438 1363.597656 L 1691.964844 1363.597656 C 1683.746094 1362.984375 1677.246094 1356.820312 1676.609375 1348.960938 L 1676.609375 907.835938 C 1676.609375 899.003906 1683.996094 892.003906 1693.160156 892.003906 L 1773.316406 892.003906 C 1781.648438 892.367188 1788.316406 898.78125 1788.925781 906.726562 L 1788.925781 964.378906 L 1790.507812 964.378906 C 1811.421875 908.640625 1850.722656 882.648438 1903.660156 882.648438 C 1957.460938 882.648438 1991.066406 908.640625 2015.257812 964.378906 C 2036.085938 908.640625 2083.304688 882.648438 2133.992188 882.648438 C 2170.015625 882.648438 2209.425781 897.503906 2233.476562 930.886719 C 2260.695312 967.988281 2255.140625 1021.921875 2255.140625 1069.1875 L 2254.949219 1347.628906 C 2254.949219 1356.460938 2247.558594 1363.597656 2238.394531 1363.597656 L 2152.292969 1363.597656 C 2143.960938 1362.984375 2136.824219 1356.097656 2136.824219 1347.628906 L 2136.824219 1113.511719 C 2136.824219 1094.90625 2138.492188 1048.472656 2134.40625 1030.835938 C 2128.019531 1001.230469 2108.773438 992.871094 2083.859375 992.871094 C 2063.027344 992.871094 2041.308594 1006.757812 2032.476562 1029.03125 C 2023.644531 1051.304688 2024.507812 1088.519531 2024.507812 1113.539062 L 2024.507812 1347.378906 C 2024.507812 1356.210938 2017.117188 1363.347656 2007.953125 1363.347656 L 1921.851562 1363.347656 C 1913.160156 1362.734375 1906.382812 1355.847656 1906.382812 1347.378906 L 1906.273438 1113.539062 C 1906.273438 1064.328125 1914.382812 991.898438 1853.304688 991.898438 C 1791.535156 991.898438 1793.953125 1062.496094 1793.953125 1113.539062 L 1793.953125 1347.378906 C 1793.953125 1356.210938 1786.566406 1363.347656 1777.398438 1363.347656 M 3366.632812 883.007812 C 3494.171875 883.007812 3563.21875 992.539062 3563.21875 1131.785156 C 3563.21875 1266.339844 3486.921875 1373.066406 3366.632812 1373.066406 C 3241.648438 1373.066406 3173.1875 1263.535156 3173.1875 1127.066406 C 3173.1875 989.734375 3242.234375 882.675781 3366.632812 882.675781 M 3367.355469 972.738281 C 3304.03125 972.738281 3300.003906 1059.050781 3300.003906 1112.847656 C 3300.003906 1166.640625 3299.171875 1281.835938 3366.605469 1281.835938 C 3433.207031 1281.835938 3436.375 1188.996094 3436.375 1132.425781 C 3436.375 1095.210938 3434.789062 1050.691406 3423.597656 1015.394531 C 3413.933594 984.679688 3394.714844 972.710938 3367.382812 972.710938 M 3728.640625 1363.597656 L 3643.039062 1363.597656 C 3634.707031 1362.984375 3627.570312 1356.097656 3627.570312 1347.628906 L 3627.460938 906.390625 C 3628.183594 898.28125 3635.320312 892.003906 3644.011719 892.003906 L 3723.726562 892.003906 C 3731.222656 892.367188 3737.390625 897.449219 3739.082031 904.335938 L 3739.082031 971.820312 L 3740.667969 971.820312 C 3764.71875 911.5 3798.4375 882.730469 3857.816406 882.730469 C 3896.703125 882.730469 3933.976562 896.617188 3958.164062 934.71875 C 3980.386719 969.988281 3980.386719 1029.363281 3980.386719 1072.050781 L 3980.386719 1349.765625 C 3979.414062 1357.542969 3972.273438 1363.652344 3963.832031 1363.652344 L 3878.011719 1363.652344 C 3870.148438 1363.042969 3863.625 1357.265625 3862.789062 1349.765625 L 3862.789062 1110.179688 C 3862.789062 1061.941406 3868.34375 991.316406 3808.992188 991.316406 C 3788.078125 991.316406 3768.859375 1005.34375 3759 1026.585938 C 3746.917969 1053.527344 3745.332031 1080.382812 3745.332031 1110.125 L 3745.332031 1347.683594 C 3745.222656 1356.515625 3737.722656 1363.652344 3728.53125 1363.652344 M 2583.542969 1152.585938 C 2583.542969 1186.078125 2584.375 1213.683594 2567.433594 1243.734375 C 2553.769531 1267.894531 2532.023438 1282.78125 2507.941406 1282.78125 C 2474.945312 1282.78125 2455.589844 1257.648438 2455.589844 1220.515625 C 2455.589844 1147.253906 2521.246094 1133.953125 2583.488281 1133.953125 L 2583.488281 1152.558594 M 2670.144531 1362.070312 C 2664.449219 1367.152344 2656.253906 1367.511719 2649.867188 1364.125 C 2621.34375 1340.433594 2616.148438 1329.410156 2600.539062 1306.832031 C 2553.378906 1354.929688 2519.914062 1369.316406 2458.835938 1369.316406 C 2386.429688 1369.316406 2330.1875 1324.714844 2330.1875 1235.375 C 2330.1875 1165.613281 2367.90625 1118.121094 2421.84375 1094.90625 C 2468.503906 1074.355469 2533.660156 1070.742188 2583.488281 1065.050781 L 2583.488281 1053.941406 C 2583.488281 1033.503906 2585.070312 1009.339844 2572.933594 991.679688 C 2562.546875 975.847656 2542.464844 969.320312 2524.691406 969.320312 C 2491.917969 969.320312 2462.753906 986.125 2455.644531 1020.976562 C 2454.199219 1028.753906 2448.503906 1036.335938 2440.644531 1036.695312 L 2357.324219 1027.753906 C 2350.324219 1026.171875 2342.464844 1020.53125 2344.546875 1009.703125 C 2363.65625 908.613281 2455.089844 878.175781 2536.742188 878.175781 C 2578.570312 878.175781 2633.230469 889.285156 2666.226562 920.945312 C 2708.054688 959.992188 2704.054688 1012.089844 2704.054688 1068.800781 L 2704.054688 1202.742188 C 2704.054688 1243.011719 2720.71875 1260.648438 2736.46875 1282.449219 C 2741.910156 1290.222656 2743.132812 1299.5 2736.105469 1305.304688 L 2670.335938 1362.625 L 2670.226562 1362.347656 M 1456.609375 1152.863281 C 1456.609375 1186.359375 1457.441406 1213.960938 1440.5 1244.011719 C 1426.835938 1268.171875 1405.226562 1283.058594 1381.007812 1283.058594 C 1348.011719 1283.058594 1328.792969 1257.925781 1328.792969 1220.792969 C 1328.792969 1147.53125 1394.449219 1134.230469 1456.554688 1134.230469 L 1456.554688 1152.835938 M 1543.210938 1362.347656 C 1537.515625 1367.429688 1529.320312 1367.789062 1522.933594 1364.402344 C 1494.410156 1340.710938 1489.605469 1329.6875 1473.605469 1307.109375 C 1426.445312 1355.210938 1393.0625 1369.59375 1331.902344 1369.59375 C 1259.636719 1369.621094 1203.308594 1325.023438 1203.308594 1235.707031 C 1203.308594 1165.945312 1241.136719 1118.457031 1294.964844 1095.238281 C 1341.625 1074.6875 1406.78125 1071.078125 1456.609375 1065.382812 L 1456.609375 1054.277344 C 1456.609375 1033.835938 1458.191406 1009.675781 1446.222656 992.011719 C 1435.667969 976.179688 1415.671875 969.65625 1397.976562 969.65625 C 1365.203125 969.65625 1335.957031 986.457031 1328.542969 1021.308594 C 1327.097656 1029.085938 1321.40625 1036.667969 1313.683594 1037.03125 L 1230.25 1028.085938 C 1223.25 1026.503906 1215.53125 1020.867188 1217.472656 1010.035156 C 1236.695312 908.945312 1328.015625 878.507812 1409.671875 878.507812 C 1451.5 878.507812 1506.160156 889.617188 1539.152344 921.277344 C 1580.980469 960.324219 1576.980469 1012.421875 1576.980469 1069.132812 L 1576.980469 1203.074219 C 1576.980469 1243.34375 1593.648438 1260.980469 1609.394531 1282.78125 C 1614.949219 1290.558594 1616.171875 1299.832031 1609.117188 1305.636719 L 1543.570312 1362.625 L 1543.292969 1362.347656 " fill-opacity="1" fill-rule="evenodd"/></svg>