<?xml version="1.0" encoding="UTF-8"?><svg xmlns="http://www.w3.org/2000/svg" xmlns:xlink="http://www.w3.org/1999/xlink" width="1190.25" zoomAndPan="magnify" viewBox="0 0 1190.25 1683.749945" height="1683.749945" preserveAspectRatio="xMidYMid meet" version="1.0"><path fill="rgb(36.079407%, 55.288696%, 73.728943%)" d="M 1090.054688 383.535156 C 1090.054688 364.832031 1086.027344 348.304688 1077.929688 334.121094 C 1069.992188 320.175781 1058.101562 308.488281 1042.144531 299.242188 C 910.347656 223.28125 778.476562 147.546875 646.71875 71.503906 C 611.203125 51.007812 576.773438 51.753906 541.53125 72.546875 C 489.089844 103.472656 226.46875 253.886719 148.195312 299.203125 C 115.988281 317.851562 100.304688 346.398438 100.296875 383.5 C 100.25 536.28125 100.296875 689.03125 100.25 841.824219 C 100.257812 860.101562 104.085938 876.285156 111.820312 890.265625 C 119.773438 904.628906 131.839844 916.671875 148.171875 926.117188 C 226.429688 971.421875 489.050781 1121.808594 541.507812 1152.746094 C 576.789062 1173.578125 611.21875 1174.3125 646.734375 1153.792969 C 778.492188 1077.746094 910.402344 1002.007812 1042.199219 926.078125 C 1058.542969 916.632812 1070.589844 904.589844 1078.566406 890.226562 C 1086.273438 876.285156 1090.109375 860.0625 1090.109375 841.746094 C 1090.109375 841.746094 1090.109375 536.324219 1090.070312 383.539062 " fill-opacity="1" fill-rule="nonzero"/><path fill="rgb(10.198975%, 27.449036%, 45.489502%)" d="M 596.679688 611.167969 L 111.828125 890.261719 C 119.773438 904.625 131.839844 916.667969 148.171875 926.113281 C 226.429688 971.417969 489.050781 1121.804688 541.507812 1152.742188 C 576.789062 1173.574219 611.21875 1174.308594 646.734375 1153.789062 C 778.492188 1077.742188 910.402344 1002.003906 1042.199219 926.074219 C 1058.542969 916.628906 1070.589844 904.585938 1078.566406 890.222656 L 596.695312 611.167969 " fill-opacity="1" fill-rule="nonzero"/><path fill="rgb(10.198975%, 27.449036%, 45.489502%)" d="M 453.078125 693.835938 C 481.289062 743.085938 534.328125 776.308594 595.171875 776.308594 C 656.402344 776.308594 709.730469 742.660156 737.808594 692.90625 L 596.679688 611.167969 L 453.078125 693.835938 " fill-opacity="1" fill-rule="nonzero"/><path fill="rgb(10.5896%, 34.899902%, 55.688477%)" d="M 1090.054688 383.535156 C 1090.054688 364.832031 1086.027344 348.304688 1077.929688 334.121094 L 596.679688 611.167969 L 1078.550781 890.222656 C 1086.257812 876.28125 1090.09375 860.058594 1090.09375 841.746094 C 1090.09375 841.746094 1090.09375 536.320312 1090.054688 383.535156 " fill-opacity="1" fill-rule="nonzero"/><path fill="rgb(100%, 100%, 100%)" d="M 1063.5625 631.109375 L 1025.917969 631.109375 L 1025.917969 668.742188 L 988.234375 668.742188 L 988.234375 631.109375 L 950.589844 631.109375 L 950.589844 593.472656 L 988.234375 593.472656 L 988.234375 555.835938 L 1025.917969 555.835938 L 1025.917969 593.472656 L 1063.5625 593.472656 L 1063.5625 631.109375 " fill-opacity="1" fill-rule="nonzero"/><path fill="rgb(100%, 100%, 100%)" d="M 926.152344 631.109375 L 888.507812 631.109375 L 888.507812 668.742188 L 850.859375 668.742188 L 850.859375 631.109375 L 813.214844 631.109375 L 813.214844 593.472656 L 850.859375 593.472656 L 850.859375 555.835938 L 888.507812 555.835938 L 888.507812 593.472656 L 926.152344 593.472656 L 926.152344 631.109375 " fill-opacity="1" fill-rule="nonzero"/><path fill="rgb(100%, 100%, 100%)" d="M 737.808594 692.90625 C 709.730469 742.660156 656.402344 776.308594 595.171875 776.308594 C 534.328125 776.308594 481.289062 743.085938 453.078125 693.835938 C 439.371094 669.90625 431.488281 642.222656 431.488281 612.640625 C 431.488281 522.265625 504.777344 449.007812 595.171875 449.007812 C 655.625 449.007812 708.375 481.804688 736.726562 530.550781 L 879.792969 448.195312 C 822.9375 350.042969 716.78125 284.019531 595.171875 284.019531 C 413.625 284.019531 266.457031 431.15625 266.457031 612.640625 C 266.457031 672.191406 282.304688 728.023438 309.996094 776.191406 C 366.71875 874.851562 473.1875 941.292969 595.171875 941.292969 C 717.398438 941.292969 824.023438 874.578125 880.644531 775.648438 L 737.808594 692.90625 " fill-opacity="1" fill-rule="nonzero"/></svg>