<?xml version="1.0" encoding="UTF-8"?><svg xmlns="http://www.w3.org/2000/svg" xmlns:xlink="http://www.w3.org/1999/xlink" width="1190.25" zoomAndPan="magnify" viewBox="0 0 1190.25 1683.749945" height="1683.749945" preserveAspectRatio="xMidYMid meet" version="1.0"><path fill="rgb(100%, 56.079102%, 0%)" d="M 193.78125 912.605469 L 576.070312 196.242188 C 584.125 181.144531 605.90625 181.421875 613.5625 196.742188 L 745.859375 461.179688 Z M 193.78125 912.605469 " fill-opacity="1" fill-rule="nonzero"/><path fill="rgb(100%, 62.748718%, 0%)" d="M 193.78125 912.402344 L 332.953125 54.71875 C 336.59375 32.273438 366.757812 27.410156 377.296875 47.574219 L 645.480469 561.292969 Z M 193.78125 912.402344 " fill-opacity="1" fill-rule="nonzero"/><path fill="rgb(100%, 43.528748%, 0%)" d="M 193.980469 912.253906 L 199 908.316406 L 638.882812 548.65625 L 514.8125 311.003906 Z M 193.980469 912.253906 " fill-opacity="1" fill-rule="nonzero"/><path fill="rgb(100%, 76.858521%, 0%)" d="M 193.78125 912.605469 L 862.953125 267.742188 C 876.980469 254.226562 900.390625 262.199219 903.253906 281.460938 L 996.804688 912.605469 L 620.386719 1131.871094 C 605.105469 1140.449219 586.460938 1140.449219 571.175781 1131.871094 Z M 193.78125 912.605469 " fill-opacity="1" fill-rule="nonzero"/></svg>