<?xml version="1.0" encoding="UTF-8"?><svg xmlns="http://www.w3.org/2000/svg" xmlns:xlink="http://www.w3.org/1999/xlink" width="1190.25" zoomAndPan="magnify" viewBox="0 0 1190.25 1683.749945" height="1683.749945" preserveAspectRatio="xMidYMid meet" version="1.0"><defs><clipPath id="clip-0"><path d="M 144 341.234375 L 1012.796875 341.234375 L 1012.796875 1306.28125 L 144 1306.28125 Z M 144 341.234375 " clip-rule="nonzero"/></clipPath></defs><g clip-path="url(#clip-0)"><path fill="rgb(36.468506%, 25.099182%, 21.569824%)" d="M 1012.195312 662.113281 C 1012.195312 1156.699219 578.261719 1306.28125 578.261719 1306.28125 C 578.261719 1306.28125 144.328125 1156.699219 144.328125 662.113281 C 144.328125 601.796875 149.152344 551.132812 153.972656 510.117188 C 161.203125 449.800781 202.1875 401.550781 260.042969 387.074219 C 334.777344 365.359375 452.902344 341.234375 578.261719 341.234375 C 703.621094 341.234375 821.746094 365.359375 898.890625 387.074219 C 956.746094 401.550781 997.730469 452.214844 1004.960938 510.117188 C 1007.375 551.132812 1012.195312 604.210938 1012.195312 662.113281 Z M 1012.195312 662.113281 " fill-opacity="1" fill-rule="nonzero"/><path fill="rgb(29.798889%, 68.629456%, 31.369019%)" d="M 578.261719 413.613281 C 696.386719 413.613281 807.28125 437.738281 879.605469 457.039062 C 908.53125 464.277344 927.820312 488.402344 932.640625 519.765625 C 937.460938 565.605469 939.871094 613.859375 939.871094 662.113281 C 939.871094 1038.480469 662.636719 1190.476562 578.261719 1226.664062 C 493.886719 1188.0625 216.652344 1036.066406 216.652344 662.113281 C 216.652344 613.859375 219.0625 565.605469 223.882812 519.765625 C 226.292969 488.402344 247.992188 464.277344 276.921875 457.039062 C 349.242188 437.738281 460.136719 413.613281 578.261719 413.613281 M 578.261719 341.234375 C 452.902344 341.234375 334.777344 365.359375 257.632812 387.074219 C 202.1875 401.550781 158.792969 452.214844 153.972656 510.117188 C 149.152344 551.132812 144.328125 604.210938 144.328125 662.113281 C 144.328125 1156.699219 578.261719 1306.28125 578.261719 1306.28125 C 578.261719 1306.28125 1012.195312 1156.699219 1012.195312 662.113281 C 1012.195312 601.796875 1007.375 551.132812 1002.550781 510.117188 C 995.320312 449.800781 954.335938 401.550781 896.480469 387.074219 C 821.746094 365.359375 703.621094 341.234375 578.261719 341.234375 Z M 578.261719 341.234375 " fill-opacity="1" fill-rule="nonzero"/></g><path fill="rgb(86.268616%, 92.939758%, 78.42865%)" d="M 554.15625 920.261719 L 602.371094 920.261719 L 602.371094 1113.269531 L 554.15625 1113.269531 Z M 554.15625 920.261719 " fill-opacity="1" fill-rule="nonzero"/><path fill="rgb(29.798889%, 68.629456%, 31.369019%)" d="M 578.261719 485.992188 C 578.261719 485.992188 433.617188 606.621094 433.617188 799.632812 C 433.617188 925.085938 513.171875 1004.703125 554.15625 1040.890625 L 578.261719 968.515625 L 602.371094 1040.890625 C 643.351562 1004.703125 722.90625 925.085938 722.90625 799.632812 C 722.90625 606.621094 578.261719 485.992188 578.261719 485.992188 Z M 578.261719 485.992188 " fill-opacity="1" fill-rule="nonzero"/><path fill="rgb(50.588989%, 78.039551%, 51.759338%)" d="M 578.261719 485.992188 C 578.261719 485.992188 433.617188 606.621094 433.617188 799.632812 C 433.617188 925.085938 513.171875 1004.703125 554.15625 1040.890625 L 578.261719 968.515625 Z M 578.261719 485.992188 " fill-opacity="1" fill-rule="nonzero"/></svg>