<?xml version="1.0" encoding="UTF-8"?><svg xmlns="http://www.w3.org/2000/svg" xmlns:xlink="http://www.w3.org/1999/xlink" width="1190.25" zoomAndPan="magnify" viewBox="0 0 1190.25 1683.749945" height="1683.749945" preserveAspectRatio="xMidYMid meet" version="1.0"><defs><clipPath id="clip-0"><path d="M 102 50 L 1089 50 L 1089 1161.925781 L 102 1161.925781 Z M 102 50 " clip-rule="nonzero"/></clipPath></defs><g clip-path="url(#clip-0)"><path fill="rgb(32.548523%, 61.959839%, 26.269531%)" d="M 595.113281 1161.769531 C 579.78125 1161.769531 565.492188 1157.6875 552.242188 1150.558594 L 416.480469 1069.878906 C 396.0625 1058.667969 406.273438 1054.585938 412.394531 1052.542969 C 439.957031 1043.335938 445.058594 1041.292969 473.644531 1024.957031 C 476.703125 1022.914062 480.789062 1023.953125 483.851562 1025.996094 L 587.949219 1088.257812 C 592.03125 1090.300781 597.152344 1090.300781 600.234375 1088.257812 L 1007.480469 852.425781 C 1011.566406 850.382812 1013.605469 846.300781 1013.605469 841.175781 L 1013.605469 370.472656 C 1013.605469 365.371094 1011.566406 361.289062 1007.480469 359.246094 L 600.234375 124.402344 C 596.152344 122.359375 591.027344 122.359375 587.949219 124.402344 L 180.699219 359.246094 C 176.601562 361.289062 174.5625 366.390625 174.5625 370.476562 L 174.5625 841.179688 C 174.5625 845.261719 176.601562 850.386719 180.683594 852.429688 L 291.945312 916.734375 C 352.171875 947.363281 389.941406 911.648438 389.941406 875.894531 L 389.941406 411.316406 C 389.941406 405.195312 395.042969 399.066406 402.1875 399.066406 L 454.25 399.066406 C 460.375 399.066406 466.496094 404.171875 466.496094 411.320312 L 466.496094 875.898438 C 466.496094 956.574219 422.601562 1003.542969 346.046875 1003.542969 C 322.570312 1003.542969 304.195312 1003.542969 252.140625 977.996094 L 144.957031 916.738281 C 118.417969 901.441406 102.085938 872.851562 102.085938 842.222656 L 102.085938 371.519531 C 102.085938 340.871094 118.417969 312.28125 144.957031 296.96875 L 552.242188 61.109375 C 577.742188 46.8125 612.484375 46.8125 637.980469 61.105469 L 1045.269531 296.964844 C 1071.808594 312.28125 1088.136719 340.871094 1088.136719 371.503906 L 1088.136719 842.207031 C 1088.136719 872.835938 1071.808594 901.425781 1045.269531 916.71875 L 637.980469 1152.589844 C 624.730469 1158.71875 609.402344 1161.761719 595.113281 1161.761719 Z M 720.679688 838.132812 C 542.035156 838.132812 505.289062 756.414062 505.289062 686.984375 C 505.289062 680.859375 510.375 674.730469 517.539062 674.730469 L 570.613281 674.730469 C 576.738281 674.730469 581.824219 678.816406 581.824219 684.941406 C 589.988281 739.074219 613.484375 765.621094 721.679688 765.621094 C 807.421875 765.621094 844.167969 746.203125 844.167969 700.277344 C 844.167969 673.730469 833.960938 654.3125 700.265625 641.058594 C 588.988281 629.808594 519.578125 605.304688 519.578125 516.496094 C 519.578125 433.777344 588.988281 384.769531 705.351562 384.769531 C 836 384.769531 900.328125 429.695312 908.492188 527.707031 C 908.492188 530.789062 907.453125 533.832031 905.410156 536.914062 C 903.367188 538.957031 900.328125 541 897.246094 541 L 844.167969 541 C 839.082031 541 833.960938 536.914062 832.957031 531.792969 C 820.710938 475.65625 789.046875 457.277344 705.351562 457.277344 C 611.445312 457.277344 600.234375 489.949219 600.234375 514.453125 C 600.234375 544.042969 613.484375 553.25 740.054688 569.585938 C 865.621094 585.921875 924.824219 609.386719 924.824219 697.195312 C 923.785156 787.042969 850.292969 838.132812 720.679688 838.132812 Z M 720.679688 838.132812 " fill-opacity="1" fill-rule="nonzero"/></g></svg>