<?xml version="1.0" encoding="UTF-8"?><svg xmlns="http://www.w3.org/2000/svg" xmlns:xlink="http://www.w3.org/1999/xlink" width="1190.25" zoomAndPan="magnify" viewBox="0 0 1190.25 1683.749945" height="1683.749945" preserveAspectRatio="xMidYMid meet" version="1.0"><defs><clipPath id="clip-0"><path d="M 93.851562 144 L 1096.390625 144 L 1096.390625 1047 L 93.851562 1047 Z M 93.851562 144 " clip-rule="nonzero"/></clipPath></defs><path fill="rgb(59.609985%, 79.998779%, 99.21875%)" d="M 682.84375 595.585938 C 682.84375 644.078125 643.621094 683.296875 595.121094 683.296875 C 546.625 683.296875 507.398438 644.078125 507.398438 595.585938 C 507.398438 547.09375 546.625 507.875 595.121094 507.875 C 643.621094 507.875 682.84375 547.09375 682.84375 595.585938 Z M 682.84375 595.585938 " fill-opacity="1" fill-rule="nonzero"/><path fill="rgb(27.839661%, 53.329468%, 78.039551%)" d="M 595.121094 695.824219 C 539.832031 695.824219 494.867188 650.867188 494.867188 595.585938 C 494.867188 540.300781 539.832031 495.34375 595.121094 495.34375 C 650.414062 495.34375 695.375 540.300781 695.375 595.585938 C 695.375 650.867188 650.414062 695.824219 595.121094 695.824219 Z M 595.121094 520.402344 C 553.667969 520.402344 519.933594 554.136719 519.933594 595.585938 C 519.933594 637.035156 553.667969 670.765625 595.121094 670.765625 C 636.578125 670.765625 670.3125 637.035156 670.3125 595.585938 C 670.3125 554.136719 636.578125 520.402344 595.121094 520.402344 Z M 595.121094 520.402344 " fill-opacity="1" fill-rule="nonzero"/><path fill="rgb(59.609985%, 79.998779%, 99.21875%)" d="M 1083.859375 595.585938 C 1083.859375 525.515625 1010.875 464.46875 896.085938 425.5 C 910.519531 358.5625 912.5 298.820312 900.246094 253.058594 C 890.019531 214.917969 870.644531 187.476562 842.699219 171.539062 C 825.882812 161.964844 806.65625 157.078125 785.578125 157.078125 C 730.265625 157.078125 662.945312 192.1875 595.171875 252.082031 C 527.351562 192.164062 460.003906 157.027344 404.640625 157.027344 C 383.535156 157.027344 364.339844 161.890625 347.519531 171.488281 C 319.574219 187.453125 300.175781 214.917969 289.976562 253.085938 C 277.71875 298.84375 279.699219 358.589844 294.109375 425.5 C 179.371094 464.46875 106.386719 525.542969 106.386719 595.585938 C 106.386719 665.628906 179.371094 726.699219 294.136719 765.644531 C 279.699219 832.554688 277.71875 892.300781 290 938.058594 C 300.199219 976.25 319.601562 1003.691406 347.570312 1019.679688 C 364.386719 1029.253906 383.613281 1034.140625 404.691406 1034.140625 C 404.714844 1034.140625 404.691406 1034.140625 404.714844 1034.140625 C 460.054688 1034.140625 527.375 999.03125 595.148438 939.085938 C 662.917969 998.957031 730.238281 1034.039062 785.554688 1034.066406 C 785.578125 1034.066406 785.578125 1034.066406 785.578125 1034.066406 C 806.683594 1034.066406 825.882812 1029.203125 842.722656 1019.605469 C 870.644531 1003.667969 890.019531 976.226562 900.21875 938.085938 C 912.476562 892.324219 910.496094 832.582031 896.085938 765.667969 C 1010.851562 726.726562 1083.859375 665.652344 1083.859375 595.585938 Z M 817.886719 215.09375 C 833.777344 224.164062 845.207031 241.308594 851.824219 266.042969 C 861.871094 303.53125 859.894531 353.976562 847.863281 411.140625 C 807.859375 400.691406 764.074219 392.746094 717.332031 387.632812 C 689.511719 349.992188 660.460938 316.085938 631.113281 286.367188 C 691.191406 234.066406 746.355469 207.226562 785.578125 207.226562 C 797.859375 207.226562 808.714844 209.882812 817.886719 215.09375 Z M 740.089844 677.957031 C 723.722656 705.949219 706.90625 731.886719 689.886719 756.121094 C 659.6875 758.753906 628.054688 760.179688 595.097656 760.179688 C 562.113281 760.179688 530.484375 758.726562 500.257812 756.121094 C 483.238281 731.886719 466.421875 705.949219 450.054688 677.957031 C 434.113281 650.640625 419.679688 623.050781 406.671875 595.585938 C 419.679688 568.144531 434.113281 540.527344 450.082031 513.210938 C 466.445312 485.21875 483.289062 459.28125 500.308594 435.023438 C 530.507812 432.390625 562.164062 430.964844 595.121094 430.964844 C 628.082031 430.964844 659.710938 432.390625 689.886719 435.023438 C 706.90625 459.28125 723.722656 485.195312 740.089844 513.1875 C 756.054688 540.503906 770.515625 568.117188 783.523438 595.558594 C 770.515625 623.050781 756.054688 650.640625 740.089844 677.957031 Z M 809.617188 655.527344 C 819.890625 681.492188 828.5625 706.953125 835.707031 731.585938 C 810.894531 738.054688 784.152344 743.566406 755.652344 748 C 765.101562 733.417969 774.402344 718.582031 783.375 703.21875 C 792.648438 687.378906 801.292969 671.46875 809.617188 655.527344 Z M 595.121094 870.824219 C 576.851562 852.328125 558.355469 831.828125 539.859375 808.921875 C 558.003906 809.777344 576.375 810.300781 595.121094 810.300781 C 613.84375 810.300781 632.214844 809.777344 650.335938 808.921875 C 631.867188 831.828125 613.394531 852.351562 595.121094 870.824219 Z M 434.539062 748 C 406.070312 743.566406 379.324219 738.054688 354.511719 731.585938 C 361.65625 706.953125 370.304688 681.515625 380.578125 655.554688 C 388.898438 671.46875 397.546875 687.40625 406.796875 703.242188 C 415.769531 718.582031 425.09375 733.417969 434.539062 748 Z M 380.578125 535.617188 C 370.304688 509.652344 361.65625 484.214844 354.511719 459.582031 C 379.324219 453.117188 406.070312 447.605469 434.566406 443.167969 C 425.117188 457.753906 415.792969 472.589844 406.820312 487.925781 C 397.546875 503.789062 388.898438 519.703125 380.578125 535.617188 Z M 595.148438 320.371094 C 613.417969 338.84375 631.890625 359.339844 650.335938 382.246094 C 632.214844 381.394531 613.84375 380.867188 595.121094 380.867188 C 576.398438 380.867188 558.027344 381.394531 539.90625 382.246094 C 558.378906 359.339844 576.875 338.84375 595.148438 320.371094 Z M 783.375 487.925781 C 774.402344 472.5625 765.101562 457.726562 755.652344 443.144531 C 784.152344 447.578125 810.894531 453.09375 835.707031 459.558594 C 828.5625 484.21875 819.890625 509.652344 809.617188 535.640625 C 801.292969 519.726562 792.648438 503.789062 783.375 487.925781 Z M 338.398438 266.066406 C 345.039062 241.28125 356.46875 224.117188 372.359375 215.019531 C 381.53125 209.804688 392.382812 207.148438 404.640625 207.148438 C 443.914062 207.148438 499.078125 234.015625 559.179688 286.367188 C 529.808594 316.113281 500.734375 349.992188 472.886719 387.660156 C 426.144531 392.773438 382.359375 400.742188 342.355469 411.191406 C 330.328125 353.976562 328.347656 303.53125 338.398438 266.066406 Z M 156.511719 595.585938 C 156.511719 552.253906 212.429688 506.21875 306.464844 473.867188 C 317.796875 513.085938 332.910156 554.035156 351.503906 595.585938 C 332.910156 637.136719 317.796875 678.082031 306.464844 717.304688 C 212.429688 684.949219 156.511719 638.914062 156.511719 595.585938 Z M 404.664062 984.019531 C 392.382812 984.019531 381.507812 981.363281 372.382812 976.175781 C 356.441406 967.078125 345.015625 949.914062 338.398438 925.128906 C 328.347656 887.636719 330.328125 837.191406 342.355469 780.027344 C 382.359375 790.480469 426.121094 798.421875 472.863281 803.535156 C 500.707031 841.199219 529.78125 875.109375 559.179688 904.855469 C 499.078125 957.179688 443.914062 984.019531 404.664062 984.019531 Z M 851.796875 925.128906 C 845.15625 949.863281 833.75 967.003906 817.863281 976.074219 C 808.714844 981.289062 797.835938 983.945312 785.554688 983.945312 C 746.304688 983.945312 691.140625 957.105469 631.0625 904.828125 C 660.4375 875.082031 689.488281 841.175781 717.308594 803.535156 C 764.050781 798.421875 807.8125 790.453125 847.8125 780.027344 C 859.867188 837.191406 861.847656 887.636719 851.796875 925.128906 Z M 883.726562 717.328125 C 872.398438 678.109375 857.285156 637.160156 838.6875 595.585938 C 857.285156 554.011719 872.398438 513.0625 883.726562 473.84375 C 977.792969 506.195312 1033.734375 552.253906 1033.734375 595.585938 C 1033.734375 638.914062 977.792969 684.976562 883.726562 717.328125 Z M 883.726562 717.328125 " fill-opacity="1" fill-rule="nonzero"/><g clip-path="url(#clip-0)"><path fill="rgb(27.839661%, 53.329468%, 78.039551%)" d="M 404.691406 1046.671875 C 381.382812 1046.671875 360.078125 1041.257812 341.328125 1030.582031 C 310.328125 1012.839844 288.972656 982.816406 277.867188 941.292969 C 266.039062 897.136719 266.691406 839.445312 279.625 773.839844 C 161.375 731.410156 93.851562 666.804688 93.851562 595.585938 C 93.851562 524.363281 161.375 459.757812 279.625 417.304688 C 266.664062 351.722656 266.039062 294.007812 277.867188 249.851562 C 288.972656 208.351562 310.328125 178.332031 341.304688 160.613281 C 404.464844 124.574219 496.148438 150.765625 595.148438 235.492188 C 694.125 150.839844 785.730469 124.675781 848.914062 160.664062 C 879.867188 178.332031 901.222656 208.328125 912.351562 249.828125 C 924.179688 294.007812 923.527344 351.722656 910.570312 417.304688 C 1028.847656 459.734375 1096.390625 524.363281 1096.390625 595.585938 C 1096.390625 666.804688 1028.847656 731.4375 910.570312 773.890625 C 923.554688 839.472656 924.15625 897.160156 912.324219 941.34375 C 901.222656 982.84375 879.894531 1012.839844 848.941406 1030.507812 C 785.703125 1066.542969 694.023438 1040.304688 595.121094 955.703125 C 525.546875 1015.269531 459.878906 1046.671875 404.691406 1046.671875 Z M 404.640625 169.558594 C 385.765625 169.558594 368.625 173.871094 353.734375 182.363281 C 328.773438 196.648438 311.402344 221.535156 302.105469 256.316406 C 290.625 299.097656 292.128906 356.683594 306.390625 422.867188 L 308.746094 433.796875 L 298.171875 437.402344 C 184.230469 476.046875 118.917969 533.710938 118.917969 595.585938 C 118.917969 657.457031 184.230469 715.121094 298.144531 753.789062 L 308.722656 757.398438 L 306.367188 768.324219 C 292.105469 834.511719 290.601562 892.097656 302.082031 934.875 C 311.378906 969.683594 328.746094 994.570312 353.761719 1008.855469 C 368.675781 1017.300781 385.792969 1021.609375 404.664062 1021.609375 L 404.691406 1021.609375 C 455.117188 1021.609375 519.78125 988.980469 586.828125 929.714844 L 595.121094 922.371094 L 603.417969 929.714844 C 670.4375 988.90625 735.125 1021.535156 785.554688 1021.535156 C 804.453125 1021.535156 821.597656 1017.226562 836.535156 1008.730469 C 861.445312 994.496094 878.816406 969.636719 888.113281 934.851562 C 899.59375 892.074219 898.089844 834.511719 883.828125 768.324219 L 881.472656 757.398438 L 892.050781 753.789062 C 1005.988281 715.148438 1071.328125 657.457031 1071.328125 595.585938 C 1071.328125 533.6875 1005.988281 476.023438 892.050781 437.378906 L 881.472656 433.769531 L 883.855469 422.84375 C 898.113281 356.660156 899.617188 299.070312 888.140625 256.292969 C 878.816406 221.484375 861.445312 196.648438 836.484375 182.414062 C 821.570312 173.917969 804.453125 169.609375 785.578125 169.609375 C 735.175781 169.609375 670.511719 202.238281 603.445312 261.480469 L 595.148438 268.824219 L 586.851562 261.480469 C 519.78125 202.214844 455.09375 169.558594 404.640625 169.558594 Z M 404.664062 996.550781 C 390.203125 996.550781 377.246094 993.367188 366.191406 987.050781 C 347.246094 976.226562 333.8125 956.476562 326.265625 928.359375 C 316.039062 890.09375 317.367188 837.894531 330.078125 777.449219 L 332.78125 764.589844 L 345.492188 767.898438 C 385.367188 778.300781 428.625 786.117188 474.191406 791.082031 L 479.628906 791.683594 L 482.914062 796.066406 C 509.804688 832.429688 538.480469 866.0625 568.054688 896.03125 L 577.425781 905.53125 L 567.378906 914.300781 C 506.5 967.328125 448.703125 996.550781 404.664062 996.550781 Z M 352.082031 795.390625 C 340.351562 846.515625 340 890.042969 350.503906 921.871094 C 357.46875 942.945312 365.667969 957.90625 378.597656 965.273438 C 411.03125 983.792969 474.167969 959.335938 540.835938 903.976562 C 514.945312 876.910156 489.832031 847.164062 466.046875 815.363281 C 426.121094 810.804688 387.847656 804.085938 352.082031 795.390625 Z M 785.578125 996.476562 C 741.542969 996.476562 683.746094 967.28125 622.894531 914.277344 L 612.84375 905.53125 L 622.214844 896.03125 C 651.917969 865.910156 680.539062 832.304688 707.28125 796.09375 L 710.539062 791.683594 L 716.003906 791.082031 C 761.59375 786.09375 804.929688 778.300781 844.753906 767.898438 L 857.488281 764.589844 L 860.167969 777.449219 C 872.875 837.941406 874.203125 890.117188 863.953125 928.359375 C 856.410156 956.453125 843 976.175781 824.128906 986.953125 C 813 993.292969 800.042969 996.476562 785.578125 996.476562 Z M 649.410156 903.976562 C 716.078125 959.285156 779.011719 983.769531 811.695312 965.199219 C 824.554688 957.882812 832.722656 942.921875 839.691406 921.894531 C 850.269531 890.042969 849.84375 846.515625 838.136719 795.414062 C 802.371094 804.113281 764.101562 810.804688 724.125 815.390625 C 700.488281 847.066406 675.402344 876.785156 649.410156 903.976562 Z M 595.121094 888.664062 L 586.226562 879.644531 C 566.851562 860.046875 547.976562 838.921875 530.132812 816.792969 L 512.589844 795.066406 L 540.460938 796.394531 C 576.324219 798.097656 613.921875 798.097656 649.761719 796.394531 L 677.605469 795.066406 L 660.113281 816.765625 C 642.316406 838.796875 623.46875 859.945312 604.046875 879.59375 Z M 567.503906 822.480469 C 576.5 832.929688 585.75 843.082031 595.121094 852.855469 C 604.496094 843.03125 613.695312 832.90625 622.71875 822.480469 C 604.445312 822.957031 585.773438 822.957031 567.503906 822.480469 Z M 595.121094 772.710938 C 562.941406 772.710938 530.683594 771.332031 499.203125 768.601562 L 493.390625 768.101562 L 490.03125 763.3125 C 471.960938 737.578125 454.890625 710.960938 439.277344 684.273438 C 423.761719 657.683594 408.976562 629.667969 395.339844 600.949219 L 392.785156 595.585938 L 395.339844 590.222656 C 408.976562 561.503906 423.761719 533.460938 439.277344 506.894531 C 455.066406 479.882812 471.683594 454.042969 490.082031 427.832031 L 493.441406 423.070312 L 499.253906 422.570312 C 562.113281 417.105469 628.132812 417.105469 690.964844 422.570312 L 696.78125 423.070312 L 700.136719 427.855469 C 718.585938 454.167969 735.203125 480.03125 750.890625 506.894531 C 766.554688 533.710938 781.34375 561.726562 794.828125 590.246094 L 797.359375 595.585938 L 794.828125 600.949219 C 781.34375 629.441406 766.554688 657.484375 750.890625 684.296875 C 735.203125 711.164062 718.585938 737.023438 700.136719 763.339844 L 696.78125 768.125 L 690.964844 768.625 C 659.535156 771.332031 627.304688 772.710938 595.121094 772.710938 Z M 507.175781 744.140625 C 565.046875 748.828125 625.222656 748.828125 682.996094 744.140625 C 699.710938 720.058594 714.875 696.277344 729.289062 671.644531 C 743.597656 647.160156 757.15625 621.597656 769.640625 595.585938 C 757.15625 569.570312 743.597656 544.011719 729.289062 519.527344 C 714.902344 494.890625 699.710938 471.109375 682.996094 447.027344 C 625.199219 442.339844 564.921875 442.339844 507.226562 447.027344 C 490.558594 471.035156 475.371094 494.792969 460.882812 519.550781 C 446.722656 543.808594 433.136719 569.371094 420.53125 595.585938 C 433.136719 621.773438 446.695312 647.335938 460.882812 671.644531 C 475.195312 696.078125 490.757812 720.433594 507.175781 744.140625 Z M 729.890625 764.71875 L 745.101562 741.210938 C 754.449219 726.777344 763.648438 712.089844 772.546875 696.929688 C 781.71875 681.242188 790.265625 665.476562 798.488281 649.738281 L 811.167969 625.480469 L 821.246094 650.941406 C 831.394531 676.578125 840.316406 702.566406 847.738281 728.152344 L 851.320312 740.535156 L 838.863281 743.765625 C 813.375 750.382812 786.054688 755.996094 757.582031 760.433594 Z M 807.636719 685.800781 C 803.273438 693.722656 798.789062 701.664062 794.175781 709.585938 C 789.964844 716.800781 785.65625 723.894531 781.320312 730.910156 C 794.550781 728.40625 807.433594 725.671875 819.917969 722.664062 C 816.15625 710.386719 812.046875 698.082031 807.636719 685.800781 Z M 460.304688 764.71875 L 432.609375 760.40625 C 404.140625 755.972656 376.792969 750.355469 351.378906 743.742188 L 338.921875 740.507812 L 342.507812 728.152344 C 349.875 702.667969 358.773438 676.707031 368.976562 650.96875 L 379.050781 625.480469 L 391.734375 649.789062 C 399.929688 665.527344 408.476562 681.265625 417.648438 696.953125 C 426.519531 712.117188 435.742188 726.800781 445.09375 741.234375 Z M 370.277344 722.617188 C 382.710938 725.597656 395.59375 728.355469 408.800781 730.859375 C 404.464844 723.867188 400.179688 716.777344 395.96875 709.558594 C 391.332031 701.664062 386.894531 693.746094 382.535156 685.800781 C 378.121094 698.132812 374.039062 710.410156 370.277344 722.617188 Z M 875.332031 733.464844 L 871.671875 720.8125 C 860.496094 682.019531 845.53125 641.621094 827.261719 600.722656 L 824.953125 595.585938 L 827.261719 590.472656 C 845.53125 549.625 860.496094 509.203125 871.699219 470.382812 L 875.355469 457.726562 L 887.839844 462.011719 C 987.039062 496.121094 1046.265625 546.066406 1046.265625 595.585938 C 1046.265625 645.128906 987.039062 695.050781 887.8125 729.179688 Z M 852.398438 595.585938 C 868.1875 631.347656 881.449219 666.757812 891.972656 701.0625 C 970.898438 671.742188 1021.203125 630.96875 1021.203125 595.585938 C 1021.203125 560.199219 970.898438 519.425781 891.972656 490.105469 C 881.449219 524.464844 868.164062 559.847656 852.398438 595.585938 Z M 314.835938 733.441406 L 302.382812 729.15625 C 203.203125 695.023438 143.980469 645.105469 143.980469 595.585938 C 143.980469 546.066406 203.203125 496.144531 302.382812 462.011719 L 314.835938 457.726562 L 318.496094 470.382812 C 329.75 509.328125 344.6875 549.75 362.910156 590.472656 L 365.242188 595.585938 L 362.933594 600.695312 C 344.6875 641.421875 329.777344 681.84375 318.523438 720.785156 Z M 298.246094 490.105469 C 219.320312 519.453125 169.042969 560.226562 169.042969 595.585938 C 169.042969 630.945312 219.320312 671.71875 298.246094 701.0625 C 308.796875 666.605469 322.054688 631.21875 337.796875 595.585938 C 322.054688 559.949219 308.796875 524.5625 298.246094 490.105469 Z M 379.023438 565.738281 L 368.949219 540.25 C 358.773438 514.515625 349.851562 488.550781 342.484375 463.066406 L 338.898438 450.710938 L 351.355469 447.476562 C 376.820312 440.863281 404.140625 435.25 432.609375 430.8125 L 460.332031 426.503906 L 445.042969 450.035156 C 435.695312 464.445312 426.496094 479.128906 417.597656 494.292969 C 408.425781 509.953125 399.878906 525.714844 391.683594 541.453125 Z M 370.277344 468.554688 C 374.011719 480.757812 378.121094 493.0625 382.535156 505.367188 C 386.894531 497.449219 391.355469 489.53125 395.96875 481.609375 C 400.179688 474.417969 404.464844 467.324219 408.800781 460.308594 C 395.59375 462.789062 382.710938 465.570312 370.277344 468.554688 Z M 811.167969 565.738281 L 798.488281 541.453125 C 790.265625 525.691406 781.71875 509.953125 772.546875 494.265625 C 763.675781 479.105469 754.449219 464.417969 745.101562 449.984375 L 729.890625 426.476562 L 757.558594 430.789062 C 786.054688 435.222656 813.425781 440.835938 838.839844 447.476562 L 851.296875 450.710938 L 847.710938 463.089844 C 840.292969 488.652344 831.394531 514.640625 821.21875 540.300781 Z M 781.34375 460.285156 C 785.679688 467.300781 789.992188 474.394531 794.203125 481.609375 C 798.839844 489.53125 803.300781 497.449219 807.660156 505.394531 C 812.070312 493.089844 816.183594 480.785156 819.941406 468.554688 C 807.484375 465.546875 794.578125 462.789062 781.34375 460.285156 Z M 857.410156 426.601562 L 844.703125 423.296875 C 804.929688 412.894531 761.617188 405.101562 715.953125 400.113281 L 710.488281 399.511719 L 707.230469 395.101562 C 680.414062 358.789062 651.789062 325.160156 622.164062 295.1875 L 612.792969 285.6875 L 622.84375 276.917969 C 703.773438 206.472656 779.3125 178.707031 824.027344 204.21875 C 842.949219 215.019531 856.359375 234.742188 863.902344 262.808594 C 874.128906 301.074219 872.800781 353.277344 860.09375 413.746094 Z M 724.125 375.78125 C 764.152344 380.367188 802.398438 387.082031 838.136719 395.777344 C 851.09375 347.988281 852.925781 305.6875 839.714844 269.273438 C 832.148438 248.472656 824.578125 233.3125 811.671875 225.945312 C 779.136719 207.402344 716.128906 231.859375 649.433594 287.191406 C 675.324219 314.28125 700.414062 344.03125 724.125 375.78125 Z M 332.808594 426.601562 L 330.101562 413.746094 C 317.371094 353.277344 316.039062 301.101562 326.292969 262.832031 C 333.835938 234.691406 347.246094 214.945312 366.167969 204.167969 C 411.007812 178.605469 486.496094 206.449219 567.425781 276.941406 L 577.503906 285.714844 L 568.105469 295.210938 C 538.429688 325.210938 509.804688 358.839844 482.988281 395.128906 L 479.730469 399.539062 L 474.265625 400.140625 C 428.699219 405.125 385.367188 412.921875 345.515625 423.320312 Z M 404.640625 219.679688 C 394.589844 219.679688 385.816406 221.761719 378.550781 225.921875 C 365.667969 233.261719 359.148438 248.875 350.503906 269.300781 C 336.96875 301.25 339.25 344.757812 352.082031 395.777344 C 387.871094 387.082031 426.121094 380.367188 466.097656 375.78125 C 489.804688 344.03125 514.917969 314.308594 540.859375 287.21875 C 489.003906 244.164062 439.804688 219.679688 404.640625 219.679688 Z M 512.636719 396.078125 L 530.15625 374.378906 C 547.953125 352.324219 566.824219 331.199219 586.226562 311.550781 L 595.121094 302.53125 L 604.019531 311.550781 C 623.496094 331.273438 642.34375 352.398438 660.0625 374.351562 L 677.53125 396.054688 L 649.710938 394.75 C 613.871094 393.074219 576.273438 393.074219 540.457031 394.75 Z M 595.121094 368.335938 C 604.394531 368.335938 613.59375 368.464844 622.71875 368.6875 C 613.769531 358.289062 604.519531 348.164062 595.148438 338.339844 C 585.773438 348.140625 576.550781 358.261719 567.550781 368.6875 C 576.675781 368.464844 585.847656 368.335938 595.121094 368.335938 Z M 595.121094 368.335938 " fill-opacity="1" fill-rule="nonzero"/></g></svg>