<?xml version="1.0" encoding="UTF-8"?><svg xmlns="http://www.w3.org/2000/svg" xmlns:xlink="http://www.w3.org/1999/xlink" width="1190.25" zoomAndPan="magnify" viewBox="0 0 1190.25 1683.749945" height="1683.749945" preserveAspectRatio="xMidYMid meet" version="1.0"><defs><clipPath id="clip-0"><path d="M 184.234375 119.433594 L 1006.0625 119.433594 L 1006.0625 941.261719 L 184.234375 941.261719 Z M 184.234375 119.433594 " clip-rule="nonzero"/></clipPath></defs><g clip-path="url(#clip-0)"><path fill="rgb(100%, 25.489807%, 78.42865%)" d="M 184.234375 210.75 C 184.234375 160.320312 225.121094 119.433594 275.550781 119.433594 L 914.75 119.433594 C 965.175781 119.433594 1006.0625 160.320312 1006.0625 210.75 L 1006.0625 849.949219 C 1006.0625 900.375 965.175781 941.261719 914.75 941.261719 L 275.550781 941.261719 C 225.121094 941.261719 184.234375 900.375 184.234375 849.949219 Z M 184.234375 210.75 " fill-opacity="1" fill-rule="nonzero"/></g><path fill="rgb(8.628845%, 0.779724%, 4.309082%)" d="M 252.722656 187.921875 L 252.722656 872.777344 L 937.578125 872.777344 L 937.578125 187.921875 Z M 483.128906 477.730469 L 526.824219 366.257812 L 601.953125 366.257812 L 525.703125 527.222656 L 603.734375 690.855469 L 527.714844 690.855469 L 483.128906 577.375 L 438.773438 690.855469 L 362.753906 690.855469 L 440.78125 527.222656 L 364.308594 366.257812 L 439.4375 366.257812 Z M 619.550781 562.902344 C 619.550781 523.363281 626.242188 493.867188 639.617188 474.394531 C 652.996094 454.921875 672.445312 445.199219 698.035156 445.199219 C 716.597656 445.199219 732.074219 453.234375 744.402344 469.28125 L 744.402344 348.449219 L 807.933594 348.449219 L 807.933594 690.878906 L 750.632812 690.878906 L 747.734375 666.359375 C 734.8125 685.695312 718.148438 695.351562 697.785156 695.351562 C 672.539062 695.351562 653.246094 685.695312 639.9375 666.359375 C 626.628906 647.023438 619.828125 618.648438 619.53125 581.210938 L 619.53125 562.902344 Z M 682.878906 578.722656 C 682.878906 602.507812 685.390625 619.128906 690.457031 628.558594 C 695.527344 637.984375 704.0625 642.710938 716.09375 642.710938 C 728.582031 642.710938 738.011719 637.140625 744.402344 626 L 744.402344 515.875 C 738.167969 503.980469 728.785156 498.046875 716.324219 498.046875 C 704.726562 498.046875 696.257812 502.726562 690.914062 512.085938 C 685.574219 521.445312 682.878906 538.109375 682.878906 562.035156 Z M 682.878906 578.722656 " fill-opacity="1" fill-rule="nonzero"/></svg>